<?xml version="1.0" encoding="UTF-8" standalone="no"?>
<!-- Created with Inkscape (http://www.inkscape.org/) -->

<svg
   width="512"
   height="512"
   viewBox="0 0 135.46666 135.46667"
   version="1.1"
   id="svg1"
   xml:space="preserve"
   inkscape:export-filename="paintbrush.png"
   inkscape:export-xdpi="5.25"
   inkscape:export-ydpi="5.25"
   sodipodi:docname="paintbrush.svg"
   inkscape:version="1.4 (e7c3feb100, 2024-10-09)"
   xmlns:inkscape="http://www.inkscape.org/namespaces/inkscape"
   xmlns:sodipodi="http://sodipodi.sourceforge.net/DTD/sodipodi-0.dtd"
   xmlns="http://www.w3.org/2000/svg"
   xmlns:svg="http://www.w3.org/2000/svg"><sodipodi:namedview
     id="namedview1"
     pagecolor="#505050"
     bordercolor="#eeeeee"
     borderopacity="1"
     inkscape:showpageshadow="0"
     inkscape:pageopacity="0"
     inkscape:pagecheckerboard="0"
     inkscape:deskcolor="#505050"
     inkscape:document-units="mm"
     inkscape:zoom="1.265625"
     inkscape:cx="343.30864"
     inkscape:cy="240.59259"
     inkscape:window-width="1916"
     inkscape:window-height="1128"
     inkscape:window-x="0"
     inkscape:window-y="0"
     inkscape:window-maximized="0"
     inkscape:current-layer="layer1" /><defs
     id="defs1" /><g
     inkscape:label="Layer 1"
     inkscape:groupmode="layer"
     id="layer1"
     style="display:inline"><g
       style="fill:#000000;fill-opacity:1"
       id="g2"
       transform="matrix(-0.33188826,0.39537673,-0.39674347,-0.33303553,162.31821,56.586862)"><g
         opacity="0.2"
         id="g1"
         style="fill:#000000;fill-opacity:1"><path
           d="m 40,112 h 176 v 24 a 16,16 0 0 1 -16,16 h -46.7759 a 8,8 0 0 0 -7.9196,9.13137 L 152,208 a 24,24 0 0 1 -48,0 l 6.69555,-46.86862 A 8,8 0 0 0 102.776,152 H 56 A 16,16 0 0 1 40,136 Z"
           id="path1"
           style="fill:#000000;fill-opacity:1" /></g><path
         d="M 216,24 H 72 A 40.04552,40.04552 0 0 0 32,64 v 72 a 24.0275,24.0275 0 0 0 24,24 h 46.77588 l -6.69531,46.86816 A 7.97979,7.97979 0 0 0 96,208 a 32,32 0 0 0 64,0 7.97979,7.97979 0 0 0 -0.0806,-1.13184 L 153.22412,160 H 200 a 24.0275,24.0275 0 0 0 24,-24 V 32 a 8.00008,8.00008 0 0 0 -8,-8 z M 72,40 h 104 v 40 a 8,8 0 0 0 16,0 V 40 h 16 v 64 H 48 V 64 A 24.0275,24.0275 0 0 1 72,40 Z m 128,104 h -46.77588 a 15.99982,15.99982 0 0 0 -15.83887,18.2627 l 6.60645,46.249 a 15.99988,15.99988 0 0 1 -31.9834,0 l 6.60645,-46.24805 A 15.99983,15.99983 0 0 0 102.77588,144 H 56 a 8.00917,8.00917 0 0 1 -8,-8 v -16 h 160 v 16 a 8.00917,8.00917 0 0 1 -8,8 z"
         id="path2"
         style="fill:#24273a;fill-opacity:1" /></g><path
       id="rect3"
       style="display:inline;fill:#24273a;fill-opacity:1;stroke:#24273a;stroke-width:0.232314;stroke-linecap:round;stroke-linejoin:round;stroke-opacity:1"
       d="m 10.115628,10.586889 2.572183,-2.2411463 2.697445,3.0958783 2.697446,3.095881 4.93966,1.142231 0.45523,5.049526 2.697448,3.095882 2.697445,3.09588 -2.572183,2.241146 -2.697444,-3.095878 -2.697448,-3.095881 -0.455222,-5.049532 -4.939669,-1.142226 -2.697445,-3.09588 z"
       sodipodi:nodetypes="ccccccccccccccc" /><circle
       style="display:inline;fill:#ed8796;fill-opacity:1;stroke:#24273a;stroke-width:0.907455;stroke-linecap:round;stroke-linejoin:round;stroke-dasharray:none;stroke-opacity:1"
       id="path3-3"
       cx="2.55744"
       cy="10.166346"
       r="5.5339298"
       transform="rotate(-41.065698)" /><path
       style="fill:#939ab7;fill-opacity:1;stroke:#000000;stroke-width:0.443504;stroke-linecap:round;stroke-linejoin:round"
       d="m 42.058862,95.684845 c -3.48448,-2.977655 -4.093842,-3.773436 -4.105612,-5.361591 -0.0032,-0.431575 0.17335,-1.136106 0.392331,-1.565621 0.21898,-0.429518 3.986,-5.041754 8.371154,-10.249417 5.344925,-6.347451 8.228838,-9.953815 8.749142,-10.940886 0.730884,-1.38657 0.776133,-1.596543 0.776133,-3.601561 0,-1.868498 -0.07666,-2.295029 -0.626209,-3.484143 -0.346923,-0.750674 -1.088677,-1.810072 -1.663145,-2.375353 -0.639556,-0.629336 -4.988512,-3.476912 -11.34842,-7.430641 -5.671319,-3.525653 -10.634756,-6.681728 -11.029863,-7.0135 -0.395105,-0.33177 -1.088636,-1.352394 -1.541179,-2.268052 -0.746425,-1.510287 -0.822805,-1.833161 -0.822805,-3.478117 0,-1.567051 0.09409,-2.014334 0.692842,-3.293854 0.848433,-1.813058 2.20904,-3.213801 3.953863,-4.070497 1.175977,-0.577396 1.546061,-0.647325 3.425083,-0.647176 2.257529,1.78e-4 3.700509,0.448917 4.847549,1.507495 0.290897,0.268461 4.308288,4.697758 8.927536,9.84288 7.849345,8.742948 8.490879,9.400182 9.809059,10.049121 3.216799,1.583625 6.927377,1.129161 9.489465,-1.162248 0.444747,-0.397759 4.425007,-5.043561 8.845023,-10.324002 4.712902,-5.630338 8.321884,-9.751473 8.726725,-9.965136 0.866142,-0.457127 2.708472,-0.472413 3.538038,-0.02936 0.746513,0.398698 6.99054,5.552863 7.008137,5.784905 0.0061,0.08801 -7.59294,9.218663 -16.888037,20.290347 -9.295095,11.071685 -21.129661,25.169658 -26.299036,31.328833 -5.169372,6.159172 -9.513976,11.219613 -9.654676,11.245423 -0.140701,0.02587 -1.748594,-1.228711 -3.573098,-2.787848 z"
       id="path4" /></g><path
     style="display:inline;fill:#cad3f5;fill-opacity:1;stroke:#000000;stroke-width:0.443504;stroke-linecap:round;stroke-linejoin:round"
     d="m 71.529765,120.42375 c -3.056336,-2.58571 -8.654249,-7.30141 -12.439809,-10.47933 L 52.207118,104.16637 78.34957,73.022634 c 14.378356,-17.129054 26.31284,-31.305406 26.52109,-31.503006 0.35259,-0.334553 0.91577,0.09265 8.18549,6.209069 9.17618,7.720422 9.37749,7.908103 10.50267,9.791306 2.19553,3.674667 2.29449,8.324681 0.25585,12.022441 -0.54855,0.994995 -6.66076,8.44686 -18.23274,22.228936 -9.574161,11.4027 -17.48595,20.73297 -17.581744,20.73392 -0.09579,9e-4 -3.766048,-3.01685 -8.156114,-6.70626 -4.390066,-3.6894 -8.253339,-6.828251 -8.585047,-6.975201 -0.331709,-0.146951 -1.157356,-0.271691 -1.834769,-0.277195 -1.558819,-0.01269 -3.025595,0.837332 -3.662144,2.122176 -0.535327,1.08054 -0.54766,3.02509 -0.02546,4.01356 0.225154,0.42619 3.629693,3.44285 8.467177,7.50251 4.449835,3.73434 8.130592,6.85628 8.179461,6.93765 0.126474,0.21061 -4.659043,5.90432 -5.007665,5.95801 -0.158889,0.0245 -2.789526,-2.07108 -5.84586,-4.6568 z"
     id="path3"
     inkscape:label="brush"
     inkscape:export-filename="paintbrush_brush.png"
     inkscape:export-xdpi="5.25"
     inkscape:export-ydpi="5.25" /></svg>
