<?xml version="1.0" encoding="UTF-8" standalone="no"?>
<!-- Created with Inkscape (http://www.inkscape.org/) -->

<svg
   width="512"
   height="512"
   viewBox="0 0 135.46666 135.46667"
   version="1.1"
   id="svg1"
   xml:space="preserve"
   inkscape:export-filename="paintbrush_brush.png"
   inkscape:export-xdpi="5.25"
   inkscape:export-ydpi="5.25"
   sodipodi:docname="paintbrush.svg"
   inkscape:version="1.4 (e7c3feb100, 2024-10-09)"
   xmlns:inkscape="http://www.inkscape.org/namespaces/inkscape"
   xmlns:sodipodi="http://sodipodi.sourceforge.net/DTD/sodipodi-0.dtd"
   xmlns="http://www.w3.org/2000/svg"
   xmlns:svg="http://www.w3.org/2000/svg"><sodipodi:namedview
     id="namedview1"
     pagecolor="#505050"
     bordercolor="#eeeeee"
     borderopacity="1"
     inkscape:showpageshadow="0"
     inkscape:pageopacity="0"
     inkscape:pagecheckerboard="0"
     inkscape:deskcolor="#505050"
     inkscape:document-units="mm"
     inkscape:zoom="1.0078851"
     inkscape:cx="222.74364"
     inkscape:cy="135.4321"
     inkscape:window-width="1916"
     inkscape:window-height="1128"
     inkscape:window-x="0"
     inkscape:window-y="0"
     inkscape:window-maximized="0"
     inkscape:current-layer="svg1" /><defs
     id="defs1" /><g
     inkscape:label="Layer 1"
     inkscape:groupmode="layer"
     id="layer1"
     style="display:inline"><g
       style="fill:#000000;fill-opacity:1"
       id="g2"
       transform="matrix(-0.2719692,0.32399547,-0.32511546,-0.27290934,157.15353,70.827811)"><g
         opacity="0.2"
         id="g1"
         style="fill:#000000;fill-opacity:1"><path
           d="m 40,112 h 176 v 24 a 16,16 0 0 1 -16,16 h -46.7759 a 8,8 0 0 0 -7.9196,9.13137 L 152,208 a 24,24 0 0 1 -48,0 l 6.69555,-46.86862 A 8,8 0 0 0 102.776,152 H 56 A 16,16 0 0 1 40,136 Z"
           id="path1"
           style="fill:#000000;fill-opacity:1" /></g><path
         d="M 216,24 H 72 A 40.04552,40.04552 0 0 0 32,64 v 72 a 24.0275,24.0275 0 0 0 24,24 h 46.77588 l -6.69531,46.86816 A 7.97979,7.97979 0 0 0 96,208 a 32,32 0 0 0 64,0 7.97979,7.97979 0 0 0 -0.0806,-1.13184 L 153.22412,160 H 200 a 24.0275,24.0275 0 0 0 24,-24 V 32 a 8.00008,8.00008 0 0 0 -8,-8 z M 72,40 h 104 v 40 a 8,8 0 0 0 16,0 V 40 h 16 v 64 H 48 V 64 A 24.0275,24.0275 0 0 1 72,40 Z m 128,104 h -46.77588 a 15.99982,15.99982 0 0 0 -15.83887,18.2627 l 6.60645,46.249 a 15.99988,15.99988 0 0 1 -31.9834,0 l 6.60645,-46.24805 A 15.99983,15.99983 0 0 0 102.77588,144 H 56 a 8.00917,8.00917 0 0 1 -8,-8 v -16 h 160 v 16 a 8.00917,8.00917 0 0 1 -8,8 z"
         id="path2"
         style="fill:#000000;fill-opacity:1" /></g><path
       id="rect3"
       style="display:inline;fill:#000000;fill-opacity:1;stroke:#000000;stroke-width:0.384432;stroke-linecap:round;stroke-linejoin:round;stroke-opacity:1"
       d="m 16.664346,17.519107 4.256429,-3.708634 4.463713,5.123039 4.463714,5.123039 8.174114,1.890159 0.75331,8.355916 4.463717,5.123043 4.463712,5.123038 -4.256428,3.708634 -4.463712,-5.123037 -4.463717,-5.123043 -0.753298,-8.355927 -8.174127,-1.890148 -4.463714,-5.12304 z"
       sodipodi:nodetypes="ccccccccccccccc" /><circle
       style="display:inline;fill:#ff0000;fill-opacity:1;stroke:#000000;stroke-width:1.50165;stroke-linecap:round;stroke-linejoin:round;stroke-dasharray:none;stroke-opacity:1"
       id="path3-3"
       cx="4.1755462"
       cy="16.773975"
       r="9.157506"
       transform="rotate(-41.065698)" /><path
       style="fill:#999999;fill-opacity:1;stroke:#000000;stroke-width:0.363434;stroke-linecap:round;stroke-linejoin:round"
       d="m 58.605792,102.86705 c -2.855393,-2.44007 -3.354741,-3.092181 -3.364386,-4.39361 -0.0026,-0.353659 0.142054,-0.930994 0.3215,-1.282964 0.179445,-0.351973 3.266368,-4.131517 6.859827,-8.398989 4.379953,-5.201483 6.743205,-8.156755 7.169573,-8.96562 0.59893,-1.136239 0.63601,-1.308303 0.63601,-2.951336 0,-1.531159 -0.06282,-1.880684 -0.513153,-2.855116 -0.28429,-0.615147 -0.892128,-1.483282 -1.362881,-1.946507 -0.524091,-0.515716 -4.087887,-2.849191 -9.299578,-6.089114 -4.64742,-2.889132 -8.714759,-5.47541 -9.038533,-5.747284 -0.323773,-0.271872 -0.892094,-1.108233 -1.262935,-1.858578 -0.611665,-1.23762 -0.674256,-1.502202 -0.674256,-2.850178 0,-1.284136 0.0771,-1.650667 0.567757,-2.699182 0.695257,-1.485729 1.81022,-2.633582 3.240033,-3.33561 0.963666,-0.473153 1.266935,-0.530457 2.806719,-0.530335 1.849955,1.46e-4 3.032419,0.367869 3.972373,1.235332 0.238378,0.219993 3.53047,3.849625 7.31576,8.065848 6.432225,7.164497 6.957937,7.703074 8.038133,8.234854 2.636038,1.297717 5.676709,0.925302 7.776238,-0.952416 0.364452,-0.325948 3.626117,-4.132997 7.248144,-8.460108 3.862035,-4.613838 6.819452,-7.990944 7.151203,-8.166032 0.709769,-0.374597 2.219485,-0.387124 2.899281,-0.02406 0.611738,0.326717 5.728469,4.55035 5.742889,4.740499 0.005,0.07212 -6.222112,7.554327 -13.839073,16.62713 -7.61696,9.072805 -17.314915,20.625532 -21.551012,25.67273 -4.236094,5.047196 -7.796324,9.194026 -7.911622,9.215176 -0.115299,0.0212 -1.432903,-1.00688 -2.928011,-2.28453 z"
       id="path4" /></g><path
     style="display:inline;fill:#ffffff;fill-opacity:1;stroke:#000000;stroke-width:0.363434;stroke-linecap:round;stroke-linejoin:round"
     d="m 82.756022,123.1396 c -2.504546,-2.11889 -7.091812,-5.98322 -10.193928,-8.5874 L 66.921883,109.81732 88.34458,84.296271 c 11.78249,-14.036577 21.56232,-25.653532 21.73298,-25.815457 0.28893,-0.274153 0.75043,0.07592 6.70768,5.088084 7.51951,6.326578 7.68448,6.480375 8.60652,8.023585 1.79915,3.011243 1.88024,6.821744 0.20966,9.851911 -0.44952,0.815359 -5.45823,6.921865 -14.94101,18.215727 -7.84564,9.344059 -14.329035,16.989839 -14.407535,16.990619 -0.0785,7.4e-4 -3.086126,-2.47219 -6.68361,-5.49551 -3.597484,-3.02332 -6.763282,-5.59548 -7.035104,-5.7159 -0.271822,-0.12042 -0.948407,-0.22264 -1.50352,-0.22715 -1.27739,-0.0104 -2.479354,0.68616 -3.000981,1.73904 -0.438679,0.88546 -0.448785,2.47894 -0.02086,3.28895 0.184505,0.34925 2.974389,2.82128 6.938514,6.14801 3.646462,3.06014 6.662696,5.61845 6.702742,5.68513 0.103641,0.17258 -3.8179,4.83835 -4.103582,4.88235 -0.130203,0.0201 -2.285905,-1.69717 -4.79045,-3.81606 z"
     id="path3"
     inkscape:label="brush"
     inkscape:export-filename="paintbrush_brush.png"
     inkscape:export-xdpi="5.25"
     inkscape:export-ydpi="5.25" /></svg>
